<svg xmlns="http://www.w3.org/2000/svg" xmlns:xlink="http://www.w3.org/1999/xlink" width="500" zoomAndPan="magnify" viewBox="0 0 375 374.999991" height="500" preserveAspectRatio="xMidYMid meet" version="1.0"><defs><g/></defs><g fill="#000000" fill-opacity="1"><g transform="translate(4.493452, 214.103483)"><g><path d="M 8.84375 -50.375 L 8.84375 -69.125 L 26.21875 -69.125 L 26.21875 -50.375 L 36.8125 -50.375 L 36.8125 -37.109375 L 26.21875 -37.109375 L 26.21875 -21.109375 C 26.21875 -16.460938 27.523438 -14.140625 30.140625 -14.140625 C 30.796875 -14.140625 31.484375 -14.269531 32.203125 -14.53125 C 32.921875 -14.789062 33.476562 -15.050781 33.875 -15.3125 L 34.46875 -15.703125 L 38.78125 -1.671875 C 35.050781 0.421875 30.796875 1.46875 26.015625 1.46875 C 22.742188 1.46875 19.929688 0.894531 17.578125 -0.25 C 15.222656 -1.394531 13.4375 -2.929688 12.21875 -4.859375 C 11.007812 -6.785156 10.144531 -8.8125 9.625 -10.9375 C 9.101562 -13.070312 8.84375 -15.347656 8.84375 -17.765625 L 8.84375 -37.109375 L 1.578125 -37.109375 L 1.578125 -50.375 Z M 8.84375 -50.375 "/></g></g></g><g fill="#000000" fill-opacity="1"><g transform="translate(34.039277, 214.103483)"><g><path d="M 10.65625 -5.984375 C 5.0625 -10.960938 2.265625 -17.34375 2.265625 -25.125 C 2.265625 -32.914062 5.175781 -39.316406 11 -44.328125 C 16.820312 -49.335938 24.019531 -51.84375 32.59375 -51.84375 C 41.039062 -51.84375 48.160156 -49.320312 53.953125 -44.28125 C 59.742188 -39.238281 62.640625 -32.851562 62.640625 -25.125 C 62.640625 -17.40625 59.804688 -11.039062 54.140625 -6.03125 C 48.484375 -1.03125 41.300781 1.46875 32.59375 1.46875 C 23.5625 1.46875 16.25 -1.015625 10.65625 -5.984375 Z M 24.109375 -33.671875 C 21.847656 -31.453125 20.71875 -28.609375 20.71875 -25.140625 C 20.71875 -21.671875 21.796875 -18.835938 23.953125 -16.640625 C 26.117188 -14.453125 28.96875 -13.359375 32.5 -13.359375 C 35.90625 -13.359375 38.703125 -14.46875 40.890625 -16.6875 C 43.085938 -18.914062 44.1875 -21.734375 44.1875 -25.140625 C 44.1875 -28.609375 43.054688 -31.453125 40.796875 -33.671875 C 38.535156 -35.898438 35.769531 -37.015625 32.5 -37.015625 C 29.164062 -37.015625 26.367188 -35.898438 24.109375 -33.671875 Z M 24.109375 -33.671875 "/></g></g></g><g fill="#000000" fill-opacity="1"><g transform="translate(89.697763, 214.103483)"><g><path d="M 22.28125 -50.375 L 22.28125 -26.40625 C 22.28125 -21.4375 23.035156 -17.90625 24.546875 -15.8125 C 26.054688 -13.71875 28.609375 -12.671875 32.203125 -12.671875 C 35.804688 -12.671875 38.359375 -13.71875 39.859375 -15.8125 C 41.367188 -17.90625 42.125 -21.4375 42.125 -26.40625 L 42.125 -50.375 L 59.5 -50.375 L 59.5 -22.1875 C 59.5 -13.8125 57.320312 -7.773438 52.96875 -4.078125 C 48.613281 -0.378906 41.691406 1.46875 32.203125 1.46875 C 22.710938 1.46875 15.789062 -0.378906 11.4375 -4.078125 C 7.082031 -7.773438 4.90625 -13.8125 4.90625 -22.1875 L 4.90625 -50.375 Z M 22.28125 -50.375 "/></g></g></g><g fill="#000000" fill-opacity="1"><g transform="translate(144.865417, 214.103483)"><g><path d="M 5.890625 0 L 5.890625 -50.375 L 23.265625 -50.375 L 23.265625 -43.109375 L 23.46875 -43.109375 C 23.59375 -43.367188 23.800781 -43.691406 24.09375 -44.078125 C 24.394531 -44.472656 25.035156 -45.160156 26.015625 -46.140625 C 27.003906 -47.128906 28.050781 -48.015625 29.15625 -48.796875 C 30.269531 -49.585938 31.710938 -50.289062 33.484375 -50.90625 C 35.253906 -51.53125 37.050781 -51.84375 38.875 -51.84375 C 40.78125 -51.84375 42.648438 -51.578125 44.484375 -51.046875 C 46.316406 -50.523438 47.65625 -50.003906 48.5 -49.484375 L 49.875 -48.703125 L 42.609375 -33.96875 C 40.453125 -35.800781 37.441406 -36.71875 33.578125 -36.71875 C 31.484375 -36.71875 29.679688 -36.257812 28.171875 -35.34375 C 26.671875 -34.425781 25.609375 -33.3125 24.984375 -32 C 24.367188 -30.695312 23.925781 -29.585938 23.65625 -28.671875 C 23.394531 -27.753906 23.265625 -27.035156 23.265625 -26.515625 L 23.265625 0 Z M 5.890625 0 "/></g></g></g><g fill="#000000" fill-opacity="1"><g transform="translate(184.522542, 214.103483)"><g><path d="M 5.890625 -81 L 29.359375 -81 C 40.617188 -81 50.238281 -77.15625 58.21875 -69.46875 C 66.207031 -61.78125 70.203125 -52.140625 70.203125 -40.546875 C 70.203125 -28.898438 66.222656 -19.226562 58.265625 -11.53125 C 50.316406 -3.84375 40.679688 0 29.359375 0 L 5.890625 0 Z M 24.34375 -16.5 L 27.203125 -16.5 C 33.941406 -16.5 39.453125 -18.769531 43.734375 -23.3125 C 48.023438 -27.863281 50.203125 -33.578125 50.265625 -40.453125 C 50.265625 -47.328125 48.117188 -53.054688 43.828125 -57.640625 C 39.546875 -62.222656 34.003906 -64.515625 27.203125 -64.515625 L 24.34375 -64.515625 Z M 24.34375 -16.5 "/></g></g></g><g fill="#000000" fill-opacity="1"><g transform="translate(247.739962, 214.103483)"><g><path d="M 9.328125 -6.234375 C 4.617188 -11.367188 2.265625 -17.664062 2.265625 -25.125 C 2.265625 -32.59375 4.617188 -38.910156 9.328125 -44.078125 C 14.035156 -49.253906 20.023438 -51.84375 27.296875 -51.84375 C 33.972656 -51.84375 39.472656 -49.75 43.796875 -45.5625 L 43.796875 -50.375 L 61.171875 -50.375 L 61.171875 0 L 43.984375 0 L 43.984375 -5.6875 L 43.796875 -5.6875 C 39.472656 -0.914062 33.972656 1.46875 27.296875 1.46875 C 20.023438 1.46875 14.035156 -1.097656 9.328125 -6.234375 Z M 24.109375 -33.671875 C 21.847656 -31.453125 20.71875 -28.609375 20.71875 -25.140625 C 20.71875 -21.671875 21.796875 -18.835938 23.953125 -16.640625 C 26.117188 -14.453125 28.96875 -13.359375 32.5 -13.359375 C 35.90625 -13.359375 38.703125 -14.46875 40.890625 -16.6875 C 43.085938 -18.914062 44.1875 -21.734375 44.1875 -25.140625 C 44.1875 -28.609375 43.054688 -31.453125 40.796875 -33.671875 C 38.535156 -35.898438 35.769531 -37.015625 32.5 -37.015625 C 29.164062 -37.015625 26.367188 -35.898438 24.109375 -33.671875 Z M 24.109375 -33.671875 "/></g></g></g><g fill="#000000" fill-opacity="1"><g transform="translate(305.558133, 214.103483)"><g><path d="M 10.65625 -5.984375 C 5.0625 -10.960938 2.265625 -17.34375 2.265625 -25.125 C 2.265625 -32.914062 5.175781 -39.316406 11 -44.328125 C 16.820312 -49.335938 24.019531 -51.84375 32.59375 -51.84375 C 41.039062 -51.84375 48.160156 -49.320312 53.953125 -44.28125 C 59.742188 -39.238281 62.640625 -32.851562 62.640625 -25.125 C 62.640625 -17.40625 59.804688 -11.039062 54.140625 -6.03125 C 48.484375 -1.03125 41.300781 1.46875 32.59375 1.46875 C 23.5625 1.46875 16.25 -1.015625 10.65625 -5.984375 Z M 24.109375 -33.671875 C 21.847656 -31.453125 20.71875 -28.609375 20.71875 -25.140625 C 20.71875 -21.671875 21.796875 -18.835938 23.953125 -16.640625 C 26.117188 -14.453125 28.96875 -13.359375 32.5 -13.359375 C 35.90625 -13.359375 38.703125 -14.46875 40.890625 -16.6875 C 43.085938 -18.914062 44.1875 -21.734375 44.1875 -25.140625 C 44.1875 -28.609375 43.054688 -31.453125 40.796875 -33.671875 C 38.535156 -35.898438 35.769531 -37.015625 32.5 -37.015625 C 29.164062 -37.015625 26.367188 -35.898438 24.109375 -33.671875 Z M 24.109375 -33.671875 "/></g></g></g><g fill="#000000" fill-opacity="1"><g transform="translate(106.167045, 240.70862)"><g><path d="M 10.609375 -13.828125 C 10.890625 -13.828125 11.117188 -13.742188 11.296875 -13.578125 C 11.472656 -13.421875 11.5625 -13.203125 11.5625 -12.921875 C 11.5625 -12.648438 11.472656 -12.429688 11.296875 -12.265625 C 11.117188 -12.109375 10.890625 -12.03125 10.609375 -12.03125 L 7.09375 -12.03125 L 7.09375 -0.953125 C 7.09375 -0.679688 6.992188 -0.453125 6.796875 -0.265625 C 6.609375 -0.0859375 6.375 0 6.09375 0 C 5.800781 0 5.554688 -0.0859375 5.359375 -0.265625 C 5.171875 -0.453125 5.078125 -0.679688 5.078125 -0.953125 L 5.078125 -12.03125 L 1.578125 -12.03125 C 1.304688 -12.03125 1.078125 -12.113281 0.890625 -12.28125 C 0.710938 -12.445312 0.625 -12.671875 0.625 -12.953125 C 0.625 -13.210938 0.710938 -13.421875 0.890625 -13.578125 C 1.078125 -13.742188 1.304688 -13.828125 1.578125 -13.828125 Z M 10.609375 -13.828125 "/></g></g></g><g fill="#000000" fill-opacity="1"><g transform="translate(131.238171, 240.70862)"><g><path d="M 6.5625 -10.53125 C 8.882812 -10.53125 10.046875 -9.09375 10.046875 -6.21875 L 10.046875 -0.953125 C 10.046875 -0.679688 9.953125 -0.453125 9.765625 -0.265625 C 9.585938 -0.0859375 9.363281 0 9.09375 0 C 8.832031 0 8.609375 -0.0859375 8.421875 -0.265625 C 8.242188 -0.453125 8.15625 -0.679688 8.15625 -0.953125 L 8.15625 -6.21875 C 8.15625 -7.9375 7.429688 -8.796875 5.984375 -8.796875 C 5.210938 -8.796875 4.566406 -8.546875 4.046875 -8.046875 C 3.535156 -7.554688 3.28125 -6.945312 3.28125 -6.21875 L 3.28125 -0.953125 C 3.28125 -0.679688 3.191406 -0.453125 3.015625 -0.265625 C 2.835938 -0.0859375 2.609375 0 2.328125 0 C 2.054688 0 1.832031 -0.0859375 1.65625 -0.265625 C 1.488281 -0.441406 1.40625 -0.671875 1.40625 -0.953125 L 1.40625 -13.671875 C 1.40625 -13.941406 1.492188 -14.164062 1.671875 -14.34375 C 1.847656 -14.53125 2.066406 -14.625 2.328125 -14.625 C 2.609375 -14.625 2.835938 -14.53125 3.015625 -14.34375 C 3.191406 -14.164062 3.28125 -13.941406 3.28125 -13.671875 L 3.28125 -8.671875 C 3.613281 -9.191406 4.070312 -9.628906 4.65625 -9.984375 C 5.25 -10.347656 5.882812 -10.53125 6.5625 -10.53125 Z M 6.5625 -10.53125 "/></g></g></g><g fill="#000000" fill-opacity="1"><g transform="translate(155.558773, 240.70862)"><g><path d="M 11.203125 -5.171875 C 11.203125 -4.148438 10.972656 -3.226562 10.515625 -2.40625 C 10.054688 -1.59375 9.425781 -0.953125 8.625 -0.484375 C 7.832031 -0.0234375 6.953125 0.203125 5.984375 0.203125 C 5.023438 0.203125 4.144531 -0.0234375 3.34375 -0.484375 C 2.550781 -0.953125 1.921875 -1.59375 1.453125 -2.40625 C 0.992188 -3.226562 0.765625 -4.148438 0.765625 -5.171875 C 0.765625 -6.203125 0.992188 -7.128906 1.453125 -7.953125 C 1.921875 -8.785156 2.550781 -9.429688 3.34375 -9.890625 C 4.144531 -10.359375 5.023438 -10.59375 5.984375 -10.59375 C 6.953125 -10.59375 7.832031 -10.359375 8.625 -9.890625 C 9.425781 -9.429688 10.054688 -8.785156 10.515625 -7.953125 C 10.972656 -7.128906 11.203125 -6.203125 11.203125 -5.171875 Z M 9.328125 -5.171875 C 9.328125 -5.890625 9.175781 -6.523438 8.875 -7.078125 C 8.582031 -7.640625 8.179688 -8.078125 7.671875 -8.390625 C 7.171875 -8.703125 6.609375 -8.859375 5.984375 -8.859375 C 5.367188 -8.859375 4.804688 -8.703125 4.296875 -8.390625 C 3.785156 -8.078125 3.382812 -7.640625 3.09375 -7.078125 C 2.800781 -6.523438 2.65625 -5.890625 2.65625 -5.171875 C 2.65625 -4.472656 2.800781 -3.847656 3.09375 -3.296875 C 3.382812 -2.742188 3.785156 -2.3125 4.296875 -2 C 4.804688 -1.695312 5.367188 -1.546875 5.984375 -1.546875 C 6.609375 -1.546875 7.171875 -1.695312 7.671875 -2 C 8.179688 -2.3125 8.582031 -2.742188 8.875 -3.296875 C 9.175781 -3.847656 9.328125 -4.472656 9.328125 -5.171875 Z M 9.328125 -5.171875 "/></g></g></g><g fill="#000000" fill-opacity="1"><g transform="translate(180.412646, 240.70862)"><g><path d="M 6.6875 -10.59375 C 9.050781 -10.59375 10.234375 -9.171875 10.234375 -6.328125 L 10.234375 -0.953125 C 10.234375 -0.679688 10.144531 -0.453125 9.96875 -0.265625 C 9.789062 -0.0859375 9.566406 0 9.296875 0 C 9.023438 0 8.800781 -0.0859375 8.625 -0.265625 C 8.445312 -0.453125 8.359375 -0.679688 8.359375 -0.953125 L 8.359375 -6.3125 C 8.359375 -7.082031 8.179688 -7.695312 7.828125 -8.15625 C 7.472656 -8.625 6.894531 -8.859375 6.09375 -8.859375 C 5.5625 -8.859375 5.082031 -8.738281 4.65625 -8.5 C 4.226562 -8.269531 3.890625 -7.960938 3.640625 -7.578125 C 3.398438 -7.191406 3.28125 -6.769531 3.28125 -6.3125 L 3.28125 -0.953125 C 3.28125 -0.679688 3.191406 -0.453125 3.015625 -0.265625 C 2.835938 -0.0859375 2.609375 0 2.328125 0 C 2.054688 0 1.832031 -0.0859375 1.65625 -0.265625 C 1.488281 -0.441406 1.40625 -0.671875 1.40625 -0.953125 L 1.40625 -9.40625 C 1.40625 -9.664062 1.492188 -9.890625 1.671875 -10.078125 C 1.847656 -10.265625 2.066406 -10.359375 2.328125 -10.359375 C 2.609375 -10.359375 2.835938 -10.265625 3.015625 -10.078125 C 3.191406 -9.890625 3.28125 -9.664062 3.28125 -9.40625 L 3.28125 -8.71875 C 3.625 -9.238281 4.101562 -9.679688 4.71875 -10.046875 C 5.332031 -10.410156 5.988281 -10.59375 6.6875 -10.59375 Z M 6.6875 -10.59375 "/></g></g></g><g fill="#000000" fill-opacity="1"><g transform="translate(204.930755, 240.70862)"><g><path d="M 10.0625 -10.5 C 10.332031 -10.5 10.554688 -10.410156 10.734375 -10.234375 C 10.921875 -10.054688 11.015625 -9.820312 11.015625 -9.53125 L 11.015625 -0.828125 C 11.015625 0.234375 10.785156 1.125 10.328125 1.84375 C 9.867188 2.5625 9.25 3.09375 8.46875 3.4375 C 7.695312 3.78125 6.820312 3.953125 5.84375 3.953125 C 5.320312 3.953125 4.707031 3.859375 4 3.671875 C 3.289062 3.492188 2.84375 3.304688 2.65625 3.109375 C 2.238281 2.890625 2.03125 2.625 2.03125 2.3125 C 2.03125 2.226562 2.054688 2.125 2.109375 2 C 2.253906 1.664062 2.5 1.5 2.84375 1.5 C 3.019531 1.5 3.207031 1.539062 3.40625 1.625 C 4.457031 2.03125 5.28125 2.234375 5.875 2.234375 C 6.925781 2.234375 7.726562 1.976562 8.28125 1.46875 C 8.84375 0.96875 9.125 0.273438 9.125 -0.609375 L 9.125 -1.6875 C 8.851562 -1.164062 8.390625 -0.71875 7.734375 -0.34375 C 7.085938 0.0195312 6.398438 0.203125 5.671875 0.203125 C 4.765625 0.203125 3.9375 -0.0234375 3.1875 -0.484375 C 2.4375 -0.953125 1.84375 -1.597656 1.40625 -2.421875 C 0.976562 -3.242188 0.765625 -4.171875 0.765625 -5.203125 C 0.765625 -6.222656 0.976562 -7.144531 1.40625 -7.96875 C 1.84375 -8.789062 2.429688 -9.429688 3.171875 -9.890625 C 3.921875 -10.359375 4.742188 -10.59375 5.640625 -10.59375 C 6.359375 -10.59375 7.03125 -10.425781 7.65625 -10.09375 C 8.28125 -9.769531 8.769531 -9.367188 9.125 -8.890625 L 9.125 -9.53125 C 9.125 -9.800781 9.207031 -10.03125 9.375 -10.21875 C 9.550781 -10.40625 9.78125 -10.5 10.0625 -10.5 Z M 5.890625 -1.546875 C 6.535156 -1.546875 7.109375 -1.695312 7.609375 -2 C 8.109375 -2.3125 8.5 -2.75 8.78125 -3.3125 C 9.0625 -3.875 9.203125 -4.503906 9.203125 -5.203125 C 9.203125 -5.898438 9.0625 -6.523438 8.78125 -7.078125 C 8.5 -7.628906 8.109375 -8.0625 7.609375 -8.375 C 7.109375 -8.695312 6.535156 -8.859375 5.890625 -8.859375 C 5.253906 -8.859375 4.6875 -8.695312 4.1875 -8.375 C 3.6875 -8.0625 3.296875 -7.625 3.015625 -7.0625 C 2.734375 -6.5 2.59375 -5.878906 2.59375 -5.203125 C 2.59375 -4.515625 2.734375 -3.890625 3.015625 -3.328125 C 3.296875 -2.765625 3.6875 -2.328125 4.1875 -2.015625 C 4.6875 -1.703125 5.253906 -1.546875 5.890625 -1.546875 Z M 5.890625 -1.546875 "/></g></g></g><g fill="#000000" fill-opacity="1"><g transform="translate(230.199385, 240.70862)"><g><path d="M 11.984375 -13.828125 C 12.234375 -13.828125 12.4375 -13.742188 12.59375 -13.578125 C 12.75 -13.421875 12.828125 -13.21875 12.828125 -12.96875 L 12.828125 -0.96875 C 12.828125 -0.6875 12.738281 -0.453125 12.5625 -0.265625 C 12.382812 -0.0859375 12.15625 0 11.875 0 C 11.726562 0 11.585938 -0.0195312 11.453125 -0.0625 C 11.316406 -0.113281 11.207031 -0.1875 11.125 -0.28125 L 3.359375 -10.390625 L 3.359375 -0.875 C 3.359375 -0.625 3.273438 -0.414062 3.109375 -0.25 C 2.941406 -0.0820312 2.734375 0 2.484375 0 C 2.234375 0 2.03125 -0.0820312 1.875 -0.25 C 1.71875 -0.414062 1.640625 -0.625 1.640625 -0.875 L 1.640625 -12.890625 C 1.640625 -13.160156 1.726562 -13.382812 1.90625 -13.5625 C 2.082031 -13.738281 2.300781 -13.828125 2.5625 -13.828125 C 2.726562 -13.828125 2.878906 -13.796875 3.015625 -13.734375 C 3.160156 -13.679688 3.273438 -13.601562 3.359375 -13.5 L 11.109375 -3.359375 L 11.109375 -12.96875 C 11.109375 -13.21875 11.191406 -13.421875 11.359375 -13.578125 C 11.523438 -13.742188 11.734375 -13.828125 11.984375 -13.828125 Z M 11.984375 -13.828125 "/></g></g></g><g fill="#000000" fill-opacity="1"><g transform="translate(257.541805, 240.70862)"><g><path d="M 10.5 -5.578125 C 10.476562 -5.335938 10.375 -5.132812 10.1875 -4.96875 C 10.007812 -4.800781 9.796875 -4.71875 9.546875 -4.71875 L 2.59375 -4.71875 C 2.6875 -3.757812 3.050781 -2.988281 3.6875 -2.40625 C 4.320312 -1.832031 5.101562 -1.546875 6.03125 -1.546875 C 6.664062 -1.546875 7.175781 -1.632812 7.5625 -1.8125 C 7.957031 -2 8.3125 -2.238281 8.625 -2.53125 C 8.820312 -2.644531 9.007812 -2.703125 9.1875 -2.703125 C 9.414062 -2.703125 9.601562 -2.625 9.75 -2.46875 C 9.90625 -2.3125 9.984375 -2.128906 9.984375 -1.921875 C 9.984375 -1.640625 9.851562 -1.390625 9.59375 -1.171875 C 9.207031 -0.785156 8.695312 -0.457031 8.0625 -0.1875 C 7.425781 0.0703125 6.78125 0.203125 6.125 0.203125 C 5.0625 0.203125 4.125 -0.0195312 3.3125 -0.46875 C 2.5 -0.914062 1.867188 -1.539062 1.421875 -2.34375 C 0.984375 -3.15625 0.765625 -4.066406 0.765625 -5.078125 C 0.765625 -6.179688 0.992188 -7.148438 1.453125 -7.984375 C 1.910156 -8.828125 2.507812 -9.472656 3.25 -9.921875 C 4 -10.367188 4.800781 -10.59375 5.65625 -10.59375 C 6.5 -10.59375 7.285156 -10.375 8.015625 -9.9375 C 8.753906 -9.507812 9.347656 -8.910156 9.796875 -8.140625 C 10.242188 -7.378906 10.476562 -6.523438 10.5 -5.578125 Z M 5.65625 -8.859375 C 4.914062 -8.859375 4.273438 -8.648438 3.734375 -8.234375 C 3.191406 -7.816406 2.835938 -7.175781 2.671875 -6.3125 L 8.5 -6.3125 L 8.5 -6.46875 C 8.4375 -7.164062 8.125 -7.738281 7.5625 -8.1875 C 7 -8.632812 6.363281 -8.859375 5.65625 -8.859375 Z M 5.65625 -8.859375 "/></g></g></g></svg>